<?xml version="1.0" encoding="iso-8859-1"?>
<!-- Generator: Adobe Illustrator 19.0.0, SVG Export Plug-In . SVG Version: 6.00 Build 0)  -->
<svg fill="white" version="1.1" id="Layer_1" xmlns="http://www.w3.org/2000/svg" xmlns:xlink="http://www.w3.org/1999/xlink" x="0px" y="0px"
	 viewBox="0 0 330 330" style="enable-background:new 0 0 330 330;" xml:space="preserve">
<g id="XMLID_17_">
	<polygon id="XMLID_18_" points="169.854,198.813 163.101,221.117 176.55,221.117 	"/>
	<path fill="white" id="XMLID_19_" d="M0,315c0,8.284,6.716,15,15,15h300c8.284,0,15-6.716,15-15V120H0V315z M199.314,159.846
		c2.113,0,6.032,0.748,8.536,5.752l17.058,33.842l17.168-33.87c1.814-3.627,4.925-5.724,8.52-5.724c4.994,0,10.384,3.6,10.384,9.412
		c0,1.443-0.352,3.098-0.964,4.539c-0.064,0.149-0.133,0.295-0.208,0.438l-24.894,47.513v29.971c0,5.227-4.309,9.168-10.021,9.168
		c-5.619,0-10.021-4.027-10.021-9.168v-30.215l-24.607-47.193c-1.159-2.084-1.335-4.053-1.335-5.053
		C188.931,163.445,194.32,159.846,199.314,159.846z M134.001,248.631l25.392-82.482c1.339-4.284,5.451-7.036,10.484-7.036
		c5.027,0,9.175,2.714,10.565,6.915c0.015,0.042,0.028,0.085,0.042,0.129l25.337,82.708c0.091,0.297,0.158,0.6,0.202,0.906
		c0.082,0.363,0.184,0.918,0.184,1.586c0,5.7-5.623,9.529-10.875,9.529c-4.109,0-7.455-2.36-8.732-6.16
		c-0.021-0.065-0.042-0.131-0.061-0.195l-4.319-14.473h-24.803l-4.295,14.379c-1.061,3.924-4.556,6.449-8.947,6.449
		c-5.11,0-10.627-3.598-10.627-9.412C133.547,250.965,133.547,249.868,134.001,248.631z M69,168.768c0-5.003,4.24-8.922,9.654-8.922
		h21.559c19.698,0,31.459,11.943,31.459,31.947v37.029c0,20.078-11.761,32.064-31.459,32.064H78.654
		c-5.414,0-9.654-3.973-9.654-9.045V168.768z"/>
	<path fill="white" id="XMLID_24_" d="M111.634,228.822v-37.029c0-8.773-3.416-12.518-11.421-12.518H89.039v62.184h11.174
		C108.218,241.459,111.634,237.68,111.634,228.822z"/>
	<path fill="white" id="XMLID_25_" d="M315,30h-85V15c0-8.284-6.716-15-15-15s-15,6.716-15,15v15h-70V15c0-8.284-6.716-15-15-15s-15,6.716-15,15
		v15H15C6.716,30,0,36.716,0,45v45h330V45C330,36.716,323.284,30,315,30z"/>
</g>
<g>
</g>
<g>
</g>
<g>
</g>
<g>
</g>
<g>
</g>
<g>
</g>
<g>
</g>
<g>
</g>
<g>
</g>
<g>
</g>
<g>
</g>
<g>
</g>
<g>
</g>
<g>
</g>
<g>
</g>
</svg>
